<svg viewBox="0 0 620 556" xmlns="http://www.w3.org/2000/svg" font-family="Segoe UI, Arial, sans-serif">
<rect x="0" y="0" width="620" height="556" fill="white"/>
<text x="310" y="30" text-anchor="middle" font-size="20" font-weight="700" fill="#1F2937">Source 3 -- Android Security Bulletins</text>
<rect x="180" y="64" width="260" height="64" rx="10" fill="#EAF1FB" stroke="#2F5496" stroke-width="2"/>
<text x="310" y="92" text-anchor="middle" font-size="15.5" font-weight="600" fill="#1F2937">source.android.com/.../bulletin</text>
<text x="310" y="112" text-anchor="middle" font-size="12" fill="#4B5563">Official monthly page</text>
<line x1="310" y1="128" x2="310" y2="154" stroke="#6B7280" stroke-width="2"/>
<polygon points="304,154 316,154 310,162 " fill="#6B7280"/>
<rect x="180" y="162" width="260" height="64" rx="10" fill="#EAF1FB" stroke="#2F5496" stroke-width="2"/>
<text x="310" y="190" text-anchor="middle" font-size="15.5" font-weight="600" fill="#1F2937">HTML Table Parser</text>
<text x="310" y="210" text-anchor="middle" font-size="12" fill="#4B5563">CVE | Severity | Component | AOSP link</text>
<line x1="310" y1="226" x2="310" y2="252" stroke="#6B7280" stroke-width="2"/>
<polygon points="304,252 316,252 310,260 " fill="#6B7280"/>
<rect x="180" y="260" width="260" height="64" rx="10" fill="#EAF1FB" stroke="#2F5496" stroke-width="2"/>
<text x="310" y="288" text-anchor="middle" font-size="15.5" font-weight="600" fill="#1F2937">extract_commit_hash()</text>
<text x="310" y="308" text-anchor="middle" font-size="12" fill="#4B5563">From Gerrit links</text>
<line x1="310" y1="324" x2="310" y2="350" stroke="#6B7280" stroke-width="2"/>
<polygon points="304,350 316,350 310,358 " fill="#6B7280"/>
<rect x="180" y="358" width="260" height="64" rx="10" fill="#EAF1FB" stroke="#2F5496" stroke-width="2"/>
<text x="310" y="386" text-anchor="middle" font-size="15.5" font-weight="600" fill="#1F2937">Link to local commits</text>
<text x="310" y="406" text-anchor="middle" font-size="12" fill="#4B5563">Hash-prefix matching</text>
<line x1="310" y1="422" x2="310" y2="448" stroke="#6B7280" stroke-width="2"/>
<polygon points="304,448 316,448 310,456 " fill="#6B7280"/>
<rect x="180" y="456" width="260" height="64" rx="10" fill="#EAF7EE" stroke="#2E7D32" stroke-width="2"/>
<text x="310" y="484" text-anchor="middle" font-size="15.5" font-weight="600" fill="#1F2937">linked_cves.jsonl</text>
<text x="310" y="504" text-anchor="middle" font-size="12" fill="#4B5563">~10-30% link rate expected -- normal</text>
</svg>